<svg xmlns="http://www.w3.org/2000/svg" viewBox="0 0 569.59 689.2"><defs><style>.cls-1{fill:#fff;}.cls-2{opacity:0.2;}.cls-3{fill:#242568;}.cls-4{opacity:0.3;}.cls-5{fill:#f3744d;}.cls-6{opacity:0.5;}.cls-7{fill:#ef528d;}.cls-8{fill:#f27e80;}</style></defs><title>Asset 53</title><g id="Layer_2" data-name="Layer 2"><g id="Layer_1-2" data-name="Layer 1"><path class="cls-1" d="M546.23,468c-25.77,65.92-80.67,61.16-112.24,41.08-10.18-6.48-17.94-14.55-21.5-22.35L427,404.55l6.54-37.1,1.52-8.61s4.87,19.54,14.71,37.38c10.83,19.55,27.66,37,50.66,24.38C500.41,420.6,561.21,429.66,546.23,468Z"/><g class="cls-2"><path class="cls-3" d="M546.23,468c-34.08,87.17-119.1,50.74-133.74,18.73l9.93-73.23c29.78,35.79,63.2,155.55,121.19,28.23C548.58,448.38,550.53,457,546.23,468Z"/></g><path class="cls-3" d="M478,526.8a87.6,87.6,0,0,1-42.3-11.47c-12.88-7.25-22.81-17-27.26-26.72a4.53,4.53,0,0,1,2.17-6,4.45,4.45,0,0,1,5.92,2.2c7.41,16.22,35.25,33.74,63.33,32.93,19.43-.56,46-9.93,62.21-51.41,2.92-7.47,2.75-13.88-.51-19.59-4.86-8.52-15.84-13.95-24.19-17a104.09,104.09,0,0,0-16.24-4.44c-9.79,5-19.37,5.44-28.5,1.39-28.11-12.46-41.38-64.54-41.93-66.75a4.52,4.52,0,0,1,3.23-5.48,4.44,4.44,0,0,1,5.41,3.27h0c.13.5,12.75,50,36.88,60.7,7,3.11,14.21,2.52,22-1.79l1.31-.72,1.47.22c1.49.22,36.57,5.65,48.24,26.09,4.65,8.13,5,17.36,1.08,27.42-7.52,19.23-18,33.9-31,43.61a67.8,67.8,0,0,1-39.23,13.5C479.42,526.79,478.72,526.8,478,526.8Z"/><path class="cls-1" d="M400,499.56s40.34,16.17,44.64,56.15c6,55.71-40.18,87.14-40.18,87.14H311.76V495.22"/><g class="cls-2"><path class="cls-3" d="M444.14,579.21c-6.37,41-39.67,63.65-39.67,63.65H311.76V626.93h59.67c30.52,0,58.78-17.44,71.69-45.43C443.47,580.74,443.81,580,444.14,579.21Z"/></g><path class="cls-3" d="M405.83,647.36H307.31V495.22a4.46,4.46,0,1,1,8.91,0V638.34H403a102.34,102.34,0,0,0,20.37-21.1c13.51-18.67,19.17-39.21,16.82-61-1.65-15.29-9.1-28.72-22.16-39.91a80.57,80.57,0,0,0-19.7-12.53,4.52,4.52,0,0,1-2.49-5.85,4.43,4.43,0,0,1,5.78-2.53,88.11,88.11,0,0,1,21.94,13.82,78.39,78.39,0,0,1,16.05,18.5,65.62,65.62,0,0,1,9.44,27.53,93.48,93.48,0,0,1-3.95,39,102.08,102.08,0,0,1-14.74,28.62A106.63,106.63,0,0,1,407,646.6Z"/><path class="cls-1" d="M392.83,639.11c13.24-7.68,34.84-2.87,38.22,6,2.71,7.12,1.8,20-7.38,25.85-7.34,4.69-18,4.67-44.36,4.6H248.59V571.3Z"/><g class="cls-4"><path class="cls-3" d="M423.67,671c-7.34,4.7-18,4.68-44.36,4.61H248.59V571.29l1.57.74v87.52H380.88c26.37.08,37,.09,44.37-4.59a17.69,17.69,0,0,0,6.49-7.52C433.5,654.77,431.92,665.71,423.67,671Z"/></g><path class="cls-3" d="M392.46,638.45a25.47,25.47,0,0,1,7.11-3.89,35,35,0,0,1,8-1.84,40.48,40.48,0,0,1,4.12-.24c1.38,0,2.76.06,4.15.19s2.76.37,4.15.66a33.2,33.2,0,0,1,4.13,1.18,24.21,24.21,0,0,1,4.07,1.86,17.9,17.9,0,0,1,3.9,2.91,14,14,0,0,1,1.75,2.09q.19.28.39.6c.12.21.25.42.36.65s.23.45.33.68l.15.34.11.29a24.08,24.08,0,0,1,1.22,4.56,30,30,0,0,1,.17,9.12,27.37,27.37,0,0,1-2.74,8.91,22.42,22.42,0,0,1-6.19,7.5,23.32,23.32,0,0,1-2,1.38c-.68.42-1.38.79-2.09,1.14a28.51,28.51,0,0,1-4.31,1.66,40.75,40.75,0,0,1-4.26,1c-1.4.25-2.77.45-4.13.59-2.72.29-5.38.45-8,.53-10.5.33-20.7.05-31,0l-15.4-.14c-5.14,0-10.27,0-15.4-.06l-15.41,0-15.4.11c-20.53.16-41.07.45-61.61.26l-4.89,0,0-4.86.11-13,.15-13c.12-8.69.27-17.38.54-26.07s.66-17.38,1.18-26.07q.39-6.52.9-13c.35-4.34.73-8.69,1.23-13a.75.75,0,0,1,.83-.67.76.76,0,0,1,.66.67c.5,4.34.88,8.69,1.23,13s.64,8.69.9,13q.78,13,1.17,26.07c.28,8.69.43,17.38.54,26.07l.16,13,.11,13-4.86-4.92c20.54-.19,41.08.1,61.62.27l15.4.1,15.4,0c5.14,0,10.27,0,15.41-.06l15.4-.14,7.7-.07,7.7,0c5.11,0,10.22-.08,15.22-.25,2.5-.09,5-.22,7.36-.46a39.34,39.34,0,0,0,6.76-1.16,19.56,19.56,0,0,0,2.91-1,15.58,15.58,0,0,0,2.5-1.45,13.18,13.18,0,0,0,3.71-4.28,18.07,18.07,0,0,0,2-5.85,22.22,22.22,0,0,0,.15-6.41,17.07,17.07,0,0,0-.66-3l-.09-.28c0-.06,0-.13-.07-.2a1.28,1.28,0,0,0-.09-.22l-.11-.22a5.61,5.61,0,0,0-.65-1,12.11,12.11,0,0,0-2.11-1.93,20.88,20.88,0,0,0-2.78-1.67,30.72,30.72,0,0,0-3.15-1.34,34.43,34.43,0,0,0-3.36-1c-1.15-.3-2.32-.54-3.5-.73a35.66,35.66,0,0,0-3.58-.42,33.35,33.35,0,0,0-14.47,1.9h0a.75.75,0,0,1-1-.44A.77.77,0,0,1,392.46,638.45Z"/><path class="cls-1" d="M528,400.54c0-4.61,4.31-24.27,17.13-19.89,16.74,5.73-1.43,36.54-2.35,44.55"/><path class="cls-3" d="M542.77,429.71a4.46,4.46,0,0,1-4.43-5c.3-2.59,1.67-6.18,3.42-10.73,3.13-8.17,7.86-20.54,5.21-26.28a5.07,5.07,0,0,0-3.27-2.74,4.91,4.91,0,0,0-4.89.54c-4.14,3-6.37,12-6.37,15.07a4.46,4.46,0,1,1-8.91,0c0-4,2.39-16.82,10.08-22.4a13.66,13.66,0,0,1,12.94-1.76,14.11,14.11,0,0,1,8.5,7.47c4.26,9.23-1.08,23.18-5,33.37-1.33,3.47-2.7,7.06-2.87,8.5A4.47,4.47,0,0,1,542.77,429.71Z"/><path class="cls-1" d="M13.51,529.18a197,197,0,0,0,6.68,19.05C69.82,669.36,217.05,666.62,217.05,666.62l4.48-34.14q-6.87-1.18-13.84-2.63c-56.32-11.64-115.1-36.28-139.38-82.11-11-20.79-15-45.12-13.29-66.81,2.46-32.32,17.35-58.83,39.76-59.14,14.2-.2,16,16.44,16.21,20.74,1.12,25.09,11.14,39.36,33.63,37,7-.73,15.09-6.92,20.29-17.11,6.57-12.84,8.6-32-1.63-54.63C124.26,321.54-34.84,364.55,13.51,529.18Z"/><path class="cls-5" d="M34.2,390.4C29.8,407,24.81,443.19,63,447.7,69.9,432.24,80.9,422,94.78,421.79c14.2-.2,16,16.44,16.21,20.74,1.12,25.09,11.14,39.36,33.63,37,7-.73,15.08-6.92,20.29-17.11,6.57-12.84,8.6-32-1.63-54.63C139.88,356.09,73.34,350.84,34.2,390.4Z"/><g class="cls-6"><path class="cls-1" d="M163.28,418.43A78.2,78.2,0,0,1,170,442.31c1.19-10.64-.45-23.24-6.75-37.16C128.68,328.67-.3,353.81,4.6,475.23,9.25,365.34,130,344.81,163.28,418.43Z"/></g><g class="cls-2"><path class="cls-3" d="M55,480.93c2.46-32.32,17.35-58.83,39.76-59.14,14.2-.2,16,16.44,16.21,20.74,1.12,25.09,11.14,39.36,33.63,37,7-.73,15.09-6.92,20.29-17.11-6.55,3.48-14.21,4.46-21.77,3.83-17.33-1.42-20.83-22.88-23.28-45.4-2.85-26.25-45.21-28-57.39,6.73C55.7,446.93,54.51,466.36,55,480.93Z"/></g><g class="cls-2"><path class="cls-3" d="M20.19,548.23C69.82,669.36,217.05,666.62,217.05,666.62l4.48-34.14q-6.87-1.18-13.84-2.63c-21.64,5.09-67,9.56-124.55-19.35C57.58,597.67,36.71,574.14,20.19,548.23Z"/></g><path class="cls-3" d="M216.18,671.14a224.68,224.68,0,0,1-25.65-1.76,277.49,277.49,0,0,1-61.29-14.57c-27.11-10-50.5-23.95-69.52-41.57-23.85-22.1-40.83-50-50.48-82.78C2.85,508.69-.25,488,0,468.9c.25-17.63,3.36-33.9,9.26-48.35,10.61-26,30.06-45.5,54.75-54.89,19.42-7.38,40.37-7.77,59-1.12a75.67,75.67,0,0,1,25.63,15.36,79.1,79.1,0,0,1,18.7,26c5.25,11.62,7.77,23.11,7.49,34.17a56.23,56.23,0,0,1-6.92,26.21c-5.69,10.06-14.43,16.85-22.83,17.73-10.64,1.1-19.3-1.18-25.73-6.79-7.78-6.79-12.1-18.4-12.82-34.51a28.68,28.68,0,0,0-2.4-10.29c-2-4.26-5-6.21-9.29-6.15-12.26.17-20.28,9.56-24.84,17.41-13.14,22.57-16.82,66,2.23,101.9C101,599.81,178.57,620.52,222.28,628a4.51,4.51,0,0,1-1.49,8.89c-34.22-5.89-65.54-15.59-90.58-28.06-31.16-15.52-53.31-35.37-65.83-59-9.09-17.15-14.13-38.08-14.19-58.94-.06-19.86,4.25-38.25,12.13-51.79a48.82,48.82,0,0,1,13.73-15.63,32.56,32.56,0,0,1,18.67-6.23H95c14.21,0,19.87,13.45,20.39,25.05.61,13.53,3.89,23,9.74,28.09,4.56,4,10.78,5.5,19,4.64,5.5-.57,11.78-5.76,16-13.22,3.78-6.7,11.26-25.18-.94-52.16-17.88-39.53-59.85-47.81-92.07-35.57C27.93,389-8.55,438.24,17.79,527.89,34.45,584.61,72.88,624.42,132,646.23c44.46,16.4,84.56,15.89,85,15.88a4.51,4.51,0,0,1,.17,9Z"/><path class="cls-1" d="M442.89,444.09a403,403,0,0,1-8.9,65,471,471,0,0,1-30.7,91.72c-20.4,46-30.7,55.5-48.4,66.72-19,12-74.25,16-74.25,16H238.26c-17,0-46.45-4.94-52.19-10s-7.75-13.25-12.92-19c-44.12-49.59-19.33-102.44,9-158.87,17.2-34.25,33-70.92,44.85-99.8,12.8-31.3,20.89-53.46,20.89-53.46s168.48-21.45,177.38,0q3.82,9.26,6.75,18.35l1.46,6.78,6.94,32.41,1.41,6.53A232.94,232.94,0,0,1,442.89,444.09Z"/><g class="cls-2"><path class="cls-3" d="M422.42,551.52a506,506,0,0,1-19.13,49.27c-20.4,46-30.7,55.5-48.4,66.72-19,12-74.25,16-74.25,16H245.07l12.56-69.26h23S334,502.44,336.57,525C347.05,617.86,400.34,586,422.42,551.52Z"/></g><path class="cls-3" d="M431.42,360.88c-1.66-3.86-3.35-7.69-5.1-11.49-.88-1.89-1.77-3.78-2.68-5.65l-.17-.35-.15-.3c-.08-.13-.17-.26-.26-.39a5.17,5.17,0,0,0-.74-.74,10.36,10.36,0,0,0-2.13-1.28,26.86,26.86,0,0,0-5.4-1.71,58.89,58.89,0,0,0-5.87-1c-4-.5-8-.76-12.12-.92s-8.18-.21-12.28-.2-8.22.08-12.34.19c-8.24.21-16.49.57-24.74,1s-16.51,1-24.76,1.66-16.5,1.37-24.75,2.16-16.49,1.63-24.72,2.54q-6.18.68-12.35,1.39c-4.11.48-8.24,1-12.32,1.5l4-3.25c-1.65,4.54-3.34,9-5.05,13.49s-3.42,8.95-5.17,13.41q-5.24,13.37-10.69,26.66Q220.75,424.18,209,450.39q-5.93,13.08-12.12,26.05-3.12,6.48-6.29,12.93c-2.13,4.3-4.3,8.59-6.44,12.83-4.28,8.5-8.49,17-12.39,25.6s-7.53,17.28-10.55,26.13a146.7,146.7,0,0,0-6.63,27,90.23,90.23,0,0,0,.14,27.21c.38,2.23.82,4.44,1.4,6.63l.2.82.24.81c.15.54.3,1.09.47,1.63.34,1.07.67,2.15,1.06,3.21s.79,2.11,1.19,3.17c.21.52.44,1,.65,1.56l.33.78.36.77.7,1.54.76,1.52.38.76.4.75.8,1.5a96.27,96.27,0,0,0,7.48,11.39c1.4,1.8,2.82,3.59,4.33,5.31l1.15,1.33c.47.53.92,1.07,1.33,1.62a39.14,39.14,0,0,1,2.26,3.33c1.36,2.22,2.48,4.4,3.6,6.4a35.32,35.32,0,0,0,3.45,5.31c.31.38.62.72.94,1.06l.49.48.25.23.06.06,0,0,.05,0a5.39,5.39,0,0,0,.84.54c.37.2.79.41,1.24.61.91.4,1.91.77,2.94,1.12s2.1.66,3.17,1c4.34,1.2,8.87,2.13,13.41,2.92s9.16,1.41,13.75,1.88,9.21.79,13.71.8h42.21l2.43-.2,2.47-.22c1.64-.15,3.29-.31,4.93-.48,3.29-.35,6.57-.72,9.85-1.14,6.55-.84,13.08-1.82,19.54-3a181.78,181.78,0,0,0,19-4.49,76.07,76.07,0,0,0,8.93-3.22,41,41,0,0,0,4-2l.92-.56,1-.66c.69-.44,1.36-.9,2.05-1.34,1.34-.91,2.68-1.82,4-2.77.65-.46,1.27-1,1.91-1.43s1.25-1,1.85-1.48c1.22-1,2.38-2.06,3.52-3.13.56-.55,1.14-1.08,1.68-1.65l.82-.85.79-.87a78.73,78.73,0,0,0,6-7.42c1.86-2.61,3.62-5.34,5.3-8.14s3.28-5.67,4.83-8.58c.79-1.45,1.54-2.93,2.3-4.4s1.5-3,2.22-4.46l1.09-2.24,1.07-2.25c.73-1.5,1.42-3,2.13-4.53l2.09-4.56,2.06-4.58c5.46-12.23,10.57-24.56,15.15-37.12q1.73-4.7,3.35-9.44c.54-1.58,1.09-3.16,1.61-4.75s1.06-3.17,1.56-4.76q3-9.56,5.72-19.22t4.89-19.47q2.23-9.78,4-19.68T438.56,464c.41-3.33.86-6.65,1.2-10s.67-6.68,1-10v-.05a2.15,2.15,0,0,1,4.29.28c-.11,3.4-.18,6.8-.38,10.2s-.41,6.79-.64,10.18c-.56,6.79-1.27,13.56-2.17,20.31a400.19,400.19,0,0,1-7.51,40.18q-2.4,9.93-5.27,19.76c-.46,1.63-1,3.26-1.46,4.89s-1,3.26-1.51,4.89c-1,3.24-2.11,6.48-3.21,9.7-4.43,12.89-9.5,25.57-15,38l-2.08,4.66-2.13,4.64c-1.43,3.08-2.89,6.16-4.42,9.22-.75,1.53-1.54,3.05-2.31,4.58s-1.58,3-2.41,4.55c-1.63,3-3.33,6-5.15,9s-3.73,5.88-5.81,8.72a86.14,86.14,0,0,1-6.74,8.23l-.92,1-.94.95c-.62.64-1.28,1.25-1.92,1.87-1.32,1.21-2.66,2.4-4,3.51a104.16,104.16,0,0,1-8.52,6.16c-.72.47-1.45.95-2.17,1.4l-1.08.69c-.41.24-.82.5-1.23.73a49.36,49.36,0,0,1-4.95,2.45,94,94,0,0,1-9.94,3.55,198.3,198.3,0,0,1-20,4.66c-6.67,1.24-13.35,2.24-20,3.1-3.35.42-6.69.81-10.05,1.16l-5,.5-2.53.22L281,688l-.14,0H238.11c-5,0-9.78-.36-14.59-.84s-9.58-1.15-14.35-2-9.51-1.79-14.29-3.12c-1.2-.34-2.4-.7-3.61-1.1s-2.44-.86-3.7-1.42c-.63-.28-1.27-.59-1.94-.95a14.73,14.73,0,0,1-2.14-1.41l-.29-.25-.12-.1-.1-.1-.41-.37-.77-.77c-.5-.52-1-1.06-1.43-1.61a43.59,43.59,0,0,1-4.36-6.63c-1.21-2.17-2.28-4.24-3.41-6.08a30.55,30.55,0,0,0-1.75-2.58q-.45-.6-.93-1.14l-1.19-1.37c-1.62-1.86-3.17-3.79-4.68-5.75a105.39,105.39,0,0,1-8.2-12.49l-.89-1.66-.44-.82-.42-.85-.84-1.68-.79-1.71-.39-.86-.37-.87c-.24-.58-.49-1.16-.72-1.74-.46-1.17-.93-2.34-1.33-3.53-.85-2.38-1.58-4.79-2.21-7.24s-1.15-4.91-1.58-7.39l-.3-1.87-.24-1.88c-.09-.62-.15-1.25-.21-1.87s-.14-1.25-.18-1.88c-.21-2.51-.3-5-.32-7.53s.09-5,.26-7.5.43-5,.76-7.43a159.6,159.6,0,0,1,7-28.68c3.11-9.26,6.81-18.24,10.76-27s8.16-17.43,12.41-26c2.14-4.29,4.25-8.53,6.33-12.8s4.12-8.56,6.15-12.86q6.09-12.9,11.88-25.94,11.58-26.08,22.35-52.56,5.37-13.23,10.6-26.53,2.6-6.66,5.17-13.32c1.7-4.44,3.39-8.91,5-13.33l1.07-2.88,3-.37c4.18-.51,8.3-1,12.45-1.45s8.29-.91,12.43-1.33q12.44-1.28,24.9-2.35T322,330.3q12.48-.82,25-1.33c8.34-.34,16.71-.53,25.09-.43s16.79.45,25.2,1.36a125.6,125.6,0,0,1,12.64,2c2.1.47,4.2,1,6.3,1.69a31.33,31.33,0,0,1,6.24,2.75,14,14,0,0,1,2.95,2.33,9.37,9.37,0,0,1,1.26,1.67,7.07,7.07,0,0,1,.48,1c.08.2.11.29.16.43l.13.37c.68,2,1.34,4,2,6.05q1.88,6.09,3.28,12.28a.7.7,0,0,1-.52.83A.69.69,0,0,1,431.42,360.88Z"/><path class="cls-3" d="M521.57,329.33c0,.09-.1.17-.14.25l.18-.3Z"/><path class="cls-3" d="M521.43,329.58l-5.33,8.66C517.93,335.44,519.73,332.57,521.43,329.58Z"/><path class="cls-3" d="M521.58,326.55l-.09.09-.13.18Z"/><path class="cls-3" d="M516.19,333.24c1.79-2.08,3.52-4.21,5.17-6.42Z"/><path class="cls-3" d="M161.42,333.24l-5.16-6.38C157.9,329.06,159.62,331.18,161.42,333.24Z"/><path class="cls-3" d="M525.42,324.12c-.07.08-.14.18-.22.26l.26-.29Z"/><path class="cls-3" d="M525.2,324.38l-5.3,6,.05,0Q522.68,327.46,525.2,324.38Z"/><path class="cls-1" d="M349.82,513.24c-12,61.54-11.62,141-11.16,142.33.15.45,19.57,8.23,9,19.35-14.74,15.51-62.42,9.57-67.14,2.54-6.9-10.28-26.3-131.05-20.21-187"/><path class="cls-3" d="M351.28,513.54a21.39,21.39,0,0,1,.76,3.54,33.91,33.91,0,0,1,.28,3.44c0,1.13,0,2.26,0,3.37s-.17,2.22-.27,3.32q-.31,3.31-.83,6.6c-.34,2.19-.75,4.37-1.12,6.56l-.28,1.64-.26,1.64q-.27,1.65-.48,3.3c-.29,2.2-.54,4.41-.8,6.62q-.75,6.61-1.38,13.26c-1.68,17.72-2.77,35.51-3.4,53.31-.31,8.9-.51,17.82-.53,26.69,0,2.21,0,4.44.06,6.59l0,.79c0,.25,0,.51,0,.68v0s0-.13,0-.2c.59.41-1.52-3.07-1.62-2.68a3.05,3.05,0,0,0-.3-.21l0,0,.08.05.69.36c1,.54,2.1,1.14,3.15,1.79a29.5,29.5,0,0,1,6.14,4.86,17.11,17.11,0,0,1,2.65,3.68,12.46,12.46,0,0,1,1.45,5,11.47,11.47,0,0,1-.16,2.75,12.59,12.59,0,0,1-.74,2.53,15.7,15.7,0,0,1-2.42,4,25,25,0,0,1-6.15,5.29,36.79,36.79,0,0,1-6.81,3.25,54.5,54.5,0,0,1-6.95,2,82.76,82.76,0,0,1-13.9,1.72,111.39,111.39,0,0,1-13.8-.28,97.37,97.37,0,0,1-13.75-2.06,50.66,50.66,0,0,1-7-2.11c-.6-.24-1.2-.5-1.82-.79a16.87,16.87,0,0,1-1.91-1.06c-.33-.21-.67-.44-1-.71a9.62,9.62,0,0,1-1.1-1l-.29-.31-.3-.36c-.1-.12-.2-.27-.29-.4l-.21-.34-.11-.16-.08-.15-.16-.29c-.1-.18-.19-.35-.28-.54-.33-.68-.58-1.3-.81-1.9s-.44-1.19-.63-1.77c-.38-1.15-.72-2.28-1-3.41-.63-2.24-1.19-4.46-1.71-6.68-1.05-4.44-2-8.87-2.83-13.3-1.73-8.87-3.22-17.74-4.6-26.63s-2.6-17.8-3.72-26.72-2.1-17.86-3-26.81l-.67-6.72-.64-6.72c-.42-4.48-.81-9-1.1-13.47a257.9,257.9,0,0,1-.42-27.11c.2-4.52.58-9.06,1.19-13.57.31-2.26.67-4.51,1.13-6.75s1-4.47,1.64-6.67a1.52,1.52,0,0,1,1.9-1,1.53,1.53,0,0,1,1.06,1.33h0c.19,2.25.33,4.48.47,6.7l.41,6.66q.39,6.63.76,13.27l1.4,26.56c.46,8.87,1,17.75,1.77,26.62s1.82,17.71,2.92,26.55,2.33,17.66,3.69,26.46S276,641,277.73,649.74c.85,4.35,1.75,8.68,2.76,13,.5,2.13,1,4.25,1.61,6.3.29,1,.59,2,.92,3,.16.48.32,1,.49,1.39s.34.86.5,1.18l.1.2,0,.08,0,0v0s0,0,0,0l0-.07,0,0a0,0,0,0,0,0,0,2.88,2.88,0,0,0,.48.36c.28.17.63.36,1,.55s.79.36,1.23.53a40.33,40.33,0,0,0,5.72,1.71A88.18,88.18,0,0,0,305,679.83a103.63,103.63,0,0,0,12.7.26,73.48,73.48,0,0,0,12.41-1.53,45.25,45.25,0,0,0,5.81-1.66,28.31,28.31,0,0,0,5.17-2.45,15.92,15.92,0,0,0,3.94-3.34,6.8,6.8,0,0,0,1.05-1.69,2.81,2.81,0,0,0,.24-1.28,3.3,3.3,0,0,0-.42-1.36,7.91,7.91,0,0,0-1.26-1.71,21.05,21.05,0,0,0-4.3-3.36c-.84-.52-1.7-1-2.64-1.49l-.78-.42-.27-.15-.22-.13a4.53,4.53,0,0,1-.47-.33c-.16.36-2.3-3.19-1.72-2.85,0-.14-.05-.36-.06-.4,0-.19,0-.28,0-.4,0-.39,0-.68-.05-1l0-.89c0-2.32-.06-4.57-.06-6.84,0-9,.22-18,.53-27,.64-18,1.74-35.93,3.43-53.85q.64-6.72,1.41-13.44l.79-6.71c.13-1.12.26-2.24.37-3.36s.23-2.25.34-3.37c.23-2.24.45-4.49.78-6.73s.72-4.46,1.23-6.66c.26-1.11.52-2.21.83-3.3s.69-2.17,1.12-3.24a30.24,30.24,0,0,1,1.49-3.16,19.09,19.09,0,0,1,2-3,1.69,1.69,0,0,1,2.39-.21,1.73,1.73,0,0,1,.52.78Z"/><path class="cls-3" d="M312.74,657.09a54,54,0,0,1,6.24-2.54,59.86,59.86,0,0,1,6.59-1.83l1.7-.35,1.73-.27c.57-.1,1.16-.15,1.75-.22s1.17-.14,1.76-.16l1.8-.08c.6,0,1.21,0,1.81,0l.92,0c.31,0,.61,0,.92.07l1.86.17a4,4,0,0,1-.72,8,3.82,3.82,0,0,1-1.13-.28l-.16-.06-1.37-.57-.69-.28-.72-.23c-.48-.15-.95-.33-1.45-.47l-1.49-.38a42.63,42.63,0,0,0-6.25-1,56.31,56.31,0,0,0-6.51-.18A54.47,54.47,0,0,0,312.74,657.09Z"/><path class="cls-1" d="M516.09,335.46c1.79-2.08,3.54-4.24,5.23-6.46Z"/><path class="cls-1" d="M161.76,335.46l-5.2-6.45C158.22,331.23,160,333.38,161.76,335.46Z"/><g class="cls-2"><path class="cls-3" d="M449.75,396.22q-4.62,1.9-9.29,3.64-6.72,2.52-13.48,4.69c-65.89,21.17-134.66,18.32-199.94-8.77,12.8-31.3,20.89-53.46,20.89-53.46s168.48-21.45,177.38,0q3.82,9.26,6.75,18.35l1.46,6.78,1.52-8.61S439.91,378.38,449.75,396.22Z"/></g><path class="cls-1" d="M113,291.42c1,8.83,18.81.46,22.69-1.46.31-.16.64.16.55.55a60.09,60.09,0,0,1-3.74,10.43c-3,6.76-5.46,12-4.1,15.56,1.46,3.76,7.51,5.22,15.05,4.36,4.22-.48,8.75,3.25,12.78,7.76h0l0,0,.27.35-.21-.29c2,2.21,3.82,4.61,5.46,6.79a138,138,0,0,0,22.75,20.91,154.27,154.27,0,0,0,35.1,18.4v-.09A375.8,375.8,0,0,0,262.16,387s22.66,4.9,43.37,7.61a314.22,314.22,0,0,0,33.27,1.91,322.82,322.82,0,0,0,33.54-1.91c20.7-2.71,43.37-7.61,43.37-7.61a377.42,377.42,0,0,0,42.5-12.28v.09a154.27,154.27,0,0,0,35.1-18.4,139.12,139.12,0,0,0,22.74-20.91c1.66-2.2,3.52-4.62,5.51-6.85-.08.11-.17.23-.24.34l.3-.38,0,0c4-4.52,8.58-8.27,12.81-7.79,7.54.86,13.59-.6,15-4.36,1.37-3.56-1.09-8.8-4.09-15.56a61.43,61.43,0,0,1-3.75-10.43c-.08-.39.25-.71.56-.55,3.87,1.92,21.68,10.29,22.68,1.46.57-4.89-7.28-19.68-10-34.84C546.9,212.67,544.61,204,544.61,204c-.06-.3-7.73-31.78-19.21-55,11.47-30.91,19-121.08-.21-139.91C509.8-6,451.9,25.74,430.18,47.94c-32.86-13.89-83.81-16-91.25-16-2.57,0-10.27.24-20.62,1.13-19.74,1.69-49.09,5.73-70.62,14.84C226,25.74,168.07-6,152.66,9.13,133.48,28,141,118.13,152.45,149c-7.25,14.65-13,32.61-16.23,43.92-1.9,6.59-2.95,10.92-3,11S131,212.67,123,256.58C120.31,271.74,112.47,286.53,113,291.42Z"/><path class="cls-1" d="M148.25,134.36c-5-21.92-8.3-54.31-7.09-81.12,1.1,28,5.73,56.92,11.29,71.93C151,128.12,149.59,131.21,148.25,134.36Z"/><g class="cls-2"><path class="cls-3" d="M545.35,300.94c3,6.77,5.46,12,4.09,15.56-1.46,3.77-7.51,5.22-15.05,4.37-4.24-.49-8.77,3.26-12.82,7.79l0,0-.3.39c.08-.12.17-.23.24-.34-2,2.23-3.85,4.64-5.51,6.84a138.77,138.77,0,0,1-22.74,20.92,155.07,155.07,0,0,1-35.1,18.4v-.09A380,380,0,0,1,415.71,387s-22.67,4.9-43.37,7.61a324.43,324.43,0,0,1-33.53,1.9,315.92,315.92,0,0,1-33.28-1.9c-20.71-2.71-43.37-7.61-43.37-7.61a379.19,379.19,0,0,1-42.5-12.28v.09a155.07,155.07,0,0,1-35.1-18.4,138.43,138.43,0,0,1-22.75-20.92c-1.64-2.17-3.49-4.58-5.46-6.79.07.11.15.2.21.3l-.26-.35,0,0h0c-4-4.51-8.55-8.24-12.78-7.75-7.54.85-13.59-.6-15.05-4.37-1.36-3.55,1.1-8.79,4.1-15.56.71-1.59,1.28-3,1.76-4.25a27.69,27.69,0,0,0,9.19.29c4.23-.48,8.75,3.25,12.78,7.76h0l0,0,.26.35c-.06-.1-.14-.2-.21-.3,2,2.21,3.82,4.61,5.46,6.79a138.43,138.43,0,0,0,22.75,20.92,155.07,155.07,0,0,0,35.1,18.4v-.09a379.19,379.19,0,0,0,42.5,12.28s22.66,4.9,43.37,7.61a315.92,315.92,0,0,0,33.28,1.9,324.43,324.43,0,0,0,33.53-1.9c20.7-2.71,43.37-7.61,43.37-7.61a380,380,0,0,0,42.5-12.28V351a155.07,155.07,0,0,0,35.1-18.4,138.77,138.77,0,0,0,22.74-20.92c1.66-2.2,3.52-4.61,5.51-6.84-.07.11-.16.22-.24.34l.3-.39,0,0c4-4.53,8.58-8.28,12.82-7.8a27.69,27.69,0,0,0,9.19-.29C544.06,297.93,544.64,299.35,545.35,300.94Z"/></g><path class="cls-5" d="M136.22,193a161.34,161.34,0,0,0,20,1.24c88.54,0,160.51-71.86,162.07-161.1-19.74,1.69-49.09,5.73-70.62,14.84C226,25.74,168.07-6,152.66,9.13,133.48,28,141,118.13,152.45,149,145.2,163.69,139.46,181.65,136.22,193Z"/><path class="cls-3" d="M521.28,329l-5.19,6.42C517.88,333.39,519.62,331.25,521.28,329Z"/><path class="cls-3" d="M161.76,335.46,156.58,329C158.24,331.25,160,333.39,161.76,335.46Z"/><path class="cls-7" d="M482.35,87.73c15.19,15.61,24.75,37.42,26.11,34.88a8.44,8.44,0,0,0,.39-.88c2.9-7.13,7.72-35.43,7.71-60.64,0-4.07-.12-7.66-.33-10.82-.58-8.55-1.84-14-3.4-17.54a7.72,7.72,0,0,0-10.09-4.16c-10.2,3.84-39.18,22.1-48.62,33.81C452.44,64.46,467.15,72.12,482.35,87.73Z"/><g class="cls-2"><path class="cls-3" d="M482.35,87.73c15.19,15.61,24.75,37.42,26.11,34.88a8.44,8.44,0,0,0,.39-.88C505.47,108.5,496.15,90.21,489,77c-9.76-18.06,3.71-32.4,15.39-36.68,4-1.48,8.76,4.84,11.84,10-.58-8.55-1.84-14-3.4-17.54a7.72,7.72,0,0,0-10.09-4.16c-10.2,3.84-39.18,22.1-48.62,33.81C452.44,64.46,467.15,72.12,482.35,87.73Z"/></g><path class="cls-3" d="M508.16,126.79c-2.59,0-4.18-2.27-5.24-3.79s-2.27-3.46-3.72-5.8c-4.45-7.16-11.18-18-19.66-26.68a182.93,182.93,0,0,0-20.63-17.84c-6-4.61-8.49-6.52-8.83-9.37a4.56,4.56,0,0,1,1-3.45c10-12.43,39.89-31.11,50.31-35a11.64,11.64,0,0,1,15,6.25c2.74,6.16,4.07,16,4.08,30,0,26.1-5.17,57-8.57,63.41a4.24,4.24,0,0,1-3.61,2.29ZM459.07,62.72c1.23,1,3,2.38,4.6,3.62a192.39,192.39,0,0,1,21.48,18.59c9.07,9.32,16.07,20.58,20.71,28l1,1.62c2.5-10.61,5.77-32.36,5.75-53.48h0c0-12.71-1.14-21.7-3.38-26.73a3.85,3.85,0,0,0-5.13-2.06C495.2,35.65,469.72,51.44,459.07,62.72Z"/><path class="cls-7" d="M196.7,87.73c-15.19,15.61-24.75,37.42-26.1,34.88a6.7,6.7,0,0,1-.4-.88c-2.9-7.13-7.72-35.43-7.71-60.64,0-4.07.12-7.66.33-10.82.58-8.55,1.85-14,3.4-17.54a7.72,7.72,0,0,1,10.09-4.16c10.2,3.84,39.18,22.1,48.62,33.81C226.62,64.46,211.9,72.12,196.7,87.73Z"/><g class="cls-2"><path class="cls-3" d="M196.7,87.73c-15.19,15.61-24.75,37.42-26.1,34.88a6.7,6.7,0,0,1-.4-.88c3.38-13.23,12.7-31.52,19.85-44.74,9.76-18.06-3.71-32.4-15.39-36.68-4-1.48-8.76,4.84-11.84,10,.58-8.55,1.85-14,3.4-17.54a7.72,7.72,0,0,1,10.09-4.16c10.2,3.84,39.18,22.1,48.62,33.81C226.62,64.46,211.9,72.12,196.7,87.73Z"/></g><path class="cls-3" d="M170.89,126.79h-.15a4.24,4.24,0,0,1-3.61-2.29c-3.4-6.37-8.59-37.31-8.57-63.41h0c0-14,1.34-23.84,4.07-30a11.65,11.65,0,0,1,15-6.26c10.42,3.91,40.28,22.59,50.31,35a4.56,4.56,0,0,1,1,3.45c-.34,2.85-2.82,4.76-8.83,9.37a182.93,182.93,0,0,0-20.63,17.84c-8.47,8.7-15.2,19.52-19.66,26.68-1.45,2.34-2.71,4.36-3.72,5.8S173.48,126.79,170.89,126.79Zm3.16-6.08h0ZM173.3,32a3.69,3.69,0,0,0-3.5,2.37c-2.23,5-3.36,14-3.37,26.72h0c0,21.12,3.25,42.87,5.75,53.48l1-1.62c4.64-7.45,11.64-18.71,20.71-28a192.39,192.39,0,0,1,21.48-18.59c1.62-1.24,3.37-2.58,4.6-3.62-10.65-11.28-36.13-27.07-45-30.41A4.68,4.68,0,0,0,173.3,32Z"/><path class="cls-3" d="M372.05,392.39c7.17-1.5,14.34-3,21.5-4.58l10.72-2.38,5.35-1.23,2.67-.62,1.34-.31.66-.15.63-.16,5.26-1.37c1.76-.48,3.52-.94,5.28-1.43,3.51-1,7-2,10.51-3s7-2.1,10.44-3.2q2.59-.82,5.17-1.7l2.57-.88,1.27-.45,1.24-.45,6-2.18v6.52l-6-4.24a167,167,0,0,0,15.74-6.9,145.16,145.16,0,0,0,14.81-8.59l1.77-1.2,1.73-1.21,1.68-1.26c.57-.44,1.14-.87,1.7-1.32,2.24-1.76,4.44-3.6,6.57-5.5s4.2-3.87,6.21-5.9c.5-.5,1-1,1.49-1.54s1-1,1.46-1.56,1-1.05,1.44-1.58c.24-.27.47-.54.71-.8l.35-.41.18-.2.08-.1.05-.05a3.51,3.51,0,0,0-.34.45l.12-.18a5.26,5.26,0,0,1,.48-.56,5,5,0,0,1,1-.73l-1.17,1c1.84-2.13,3.6-4.31,5.26-6.55l.11-.15.1-.11a4.61,4.61,0,0,1,.54-.53l.15-.12-.13.1a5.15,5.15,0,0,0-.52.51l7,6-5.56,6.9-7.21-5.76a90.62,90.62,0,0,1,7.81-9.35,34.31,34.31,0,0,1,5.09-4.32,19.83,19.83,0,0,1,3.3-1.8,13.14,13.14,0,0,1,4.21-1.05,11.75,11.75,0,0,1,1.19,0l.61,0,.46.05,1.26.11c.83.06,1.66.08,2.47.07a19.4,19.4,0,0,0,2.34-.16,12.78,12.78,0,0,0,2.07-.43,6.21,6.21,0,0,0,1.46-.63,1.3,1.3,0,0,0,.43-.39,1.4,1.4,0,0,0,.08-.53,7.77,7.77,0,0,0-.25-1.71,22.05,22.05,0,0,0-.7-2.27c-.29-.8-.62-1.63-1-2.47-.71-1.69-1.5-3.42-2.3-5.22s-1.59-3.73-2.29-5.68c-.36-1-.69-2-1-3-.16-.51-.31-1-.45-1.58l-.1-.41-.05-.21,0-.11s0-.2-.06-.31l-.06-.43a5.35,5.35,0,0,1,1-3.56,5,5,0,0,1,6.33-1.61l.16.08.3.15.61.29,1.23.57c.82.37,1.65.73,2.48,1.07,1.66.68,3.33,1.29,5,1.78a24.1,24.1,0,0,0,4.65,1,6.48,6.48,0,0,0,1.65,0,.85.85,0,0,0,.29-.08,1.74,1.74,0,0,0-.18.15,1.08,1.08,0,0,0-.23.32c0,.07,0,.06,0-.06,0,.09,0-.06,0-.32s-.09-.6-.17-1c-.16-.73-.39-1.55-.65-2.4s-.56-1.72-.86-2.6c-1.24-3.54-2.62-7.21-3.89-11s-2.47-7.58-3.43-11.55c-.24-1-.46-2-.67-3-.1-.51-.2-1-.29-1.52l-.27-1.44-1-5.7q-2.1-11.4-4.28-22.78c-.73-3.78-1.48-7.57-2.24-11.34-.38-1.88-.77-3.77-1.17-5.64l-.61-2.79-.31-1.37-.16-.67-.14-.59-.08-.35-.83-3.19c-.3-1.15-.62-2.31-.94-3.46-.64-2.31-1.3-4.62-2-6.91q-2.05-6.9-4.37-13.7t-5-13.42c-.89-2.21-1.81-4.39-2.76-6.56s-2-4.29-3-6.39l-1-1.95.75-2c.84-2.28,1.58-4.68,2.25-7.11s1.28-4.91,1.84-7.4c1.12-5,2-10.07,2.86-15.17,1.62-10.21,2.74-20.54,3.44-30.88a308.66,308.66,0,0,0,.59-31c-.19-5.14-.53-10.26-1.13-15.3a102.52,102.52,0,0,0-2.72-14.73A48.27,48.27,0,0,0,525.59,19a21.63,21.63,0,0,0-3.24-5.43c-.15-.18-.31-.35-.46-.51l-.23-.24-.2-.18a5.94,5.94,0,0,0-.88-.66,9.38,9.38,0,0,0-2.3-1,20,20,0,0,0-6.13-.61,43.46,43.46,0,0,0-6.92.86c-2.35.47-4.71,1.09-7.07,1.8a124.66,124.66,0,0,0-14,5.33c-4.61,2.05-9.14,4.33-13.59,6.78s-8.83,5.07-13.09,7.84-8.43,5.7-12.42,8.79a112.64,112.64,0,0,0-11.25,9.85l-2.43,2.47-3.19-1.34c-3.42-1.43-6.93-2.69-10.51-3.84-.89-.28-1.78-.58-2.69-.83l-2.71-.8c-1.82-.49-3.64-1-5.48-1.44C399.47,44,392,42.54,384.44,41.34s-15.14-2.1-22.76-2.81Q356,38,350.24,37.66q-2.87-.18-5.72-.3c-.95,0-1.89-.08-2.83-.11s-1.88,0-2.76,0-1.82,0-2.76,0l-2.84.11q-2.85.12-5.71.3-5.72.35-11.44.88-11.43,1.07-22.76,2.82c-7.54,1.2-15,2.63-22.37,4.47-1.84.45-3.66,1-5.48,1.45l-2.71.79c-.91.26-1.79.56-2.69.84-3.57,1.15-7.09,2.41-10.5,3.85l-3.21,1.34L244,51.61a112.72,112.72,0,0,0-11.25-9.84c-4-3.09-8.16-6-12.42-8.78s-8.63-5.39-13.08-7.84-9-4.72-13.6-6.77a122.67,122.67,0,0,0-14-5.32c-2.35-.72-4.72-1.34-7.06-1.81a44.52,44.52,0,0,0-6.91-.86,20,20,0,0,0-6.12.62,9.09,9.09,0,0,0-2.29,1,5.8,5.8,0,0,0-.87.65l-.19.18-.23.23c-.16.16-.31.33-.47.51A22.34,22.34,0,0,0,152.31,19,48.12,48.12,0,0,0,150,25.71a102.89,102.89,0,0,0-2.72,14.72c-.59,5-.93,10.16-1.12,15.3a305.53,305.53,0,0,0,.6,31c.7,10.34,1.82,20.67,3.44,30.87.81,5.1,1.75,10.18,2.87,15.17.56,2.49,1.16,5,1.84,7.4s1.41,4.82,2.25,7.1l.76,2.08-1,2c-1,2.1-2,4.23-3,6.39s-1.87,4.34-2.76,6.55q-2.64,6.62-5,13.42t-4.37,13.69c-.68,2.3-1.35,4.61-2,6.92-.31,1.15-.63,2.31-.93,3.46l-.83,3.18-.08.36-.14.58-.16.67-.31,1.38-.61,2.79q-.59,2.81-1.16,5.63-1.16,5.66-2.24,11.35-2.19,11.35-4.28,22.77l-1,5.71-.26,1.43c-.09.51-.19,1-.29,1.52-.21,1-.43,2-.67,3-1,4-2.15,7.81-3.43,11.56s-2.66,7.41-3.89,10.95c-.3.88-.59,1.75-.85,2.6a24.22,24.22,0,0,0-.65,2.39c-.08.36-.14.69-.17.94s0,.4,0,.3c0,.1,0,.1,0,0a1.2,1.2,0,0,0-.26-.37,1,1,0,0,0-.22-.17l.06,0,.09,0,.11,0a6.7,6.7,0,0,0,1.62,0,24.14,24.14,0,0,0,4.62-1c1.63-.49,3.3-1.1,5-1.78.83-.34,1.66-.69,2.48-1.06l1.22-.57.61-.29.3-.15.16-.08A5.12,5.12,0,0,1,136,285a5.18,5.18,0,0,1,2.44.69,5.36,5.36,0,0,1,1.63,1.49,5.45,5.45,0,0,1,1,3.66l-.06.43a2.11,2.11,0,0,1-.07.32l0,.11-.05.21-.11.42c-.14.54-.29,1.06-.44,1.58-.32,1-.65,2-1,3-.71,2-1.49,3.84-2.3,5.69s-1.59,3.53-2.3,5.22c-.35.84-.68,1.67-1,2.47a19.42,19.42,0,0,0-.69,2.25,7.62,7.62,0,0,0-.25,1.68,1.45,1.45,0,0,0,.06.46.29.29,0,0,0,.07.09,3.05,3.05,0,0,0,.32.26,6,6,0,0,0,1.43.61,12.39,12.39,0,0,0,2,.43,21.67,21.67,0,0,0,2.33.16c.8,0,1.63,0,2.46-.07l1.26-.11.46,0c.21,0,.41,0,.62,0a9.58,9.58,0,0,1,1.2,0,13.59,13.59,0,0,1,4.25,1.06,20.43,20.43,0,0,1,3.32,1.82,34.08,34.08,0,0,1,5.11,4.34,90.83,90.83,0,0,1,7.82,9.36l-7.42,5.92-5.55-6.9,7.19-6.15a4,4,0,0,0-.53-.53l-.13-.11.15.12c.1.1.26.22.56.55l.1.12.11.15c1.66,2.24,3.42,4.41,5.26,6.54l-1.21-1a4.63,4.63,0,0,1,1,.75,3.87,3.87,0,0,1,.49.57l.13.18c.07.08-.34-.45-.35-.45l0,.05.09.1.18.2.35.4c.23.27.46.54.7.8.48.53.95,1.06,1.44,1.58s1,1.05,1.46,1.56,1,1,1.49,1.54q3,3,6.2,5.89c2.13,1.9,4.33,3.73,6.57,5.5.56.45,1.13.87,1.7,1.31l1.68,1.27,1.72,1.2c.58.4,1.18.8,1.77,1.19a141.25,141.25,0,0,0,14.79,8.59,167.92,167.92,0,0,0,15.73,6.89l-6.21,4.37v-6.7l6.19,2.24,1.23.45,1.27.45,2.57.88c1.71.57,3.44,1.14,5.17,1.69,3.46,1.1,6.95,2.16,10.44,3.19s7,2,10.51,3c1.76.49,3.52.95,5.28,1.42L263,382.8l.29.07.33.08.66.16,1.34.31,2.67.62,5.35,1.23,10.71,2.42c7.15,1.6,14.31,3.14,21.48,4.7h0a2.26,2.26,0,0,1-.58,4.47c-7.42-.38-14.79-1.17-22.13-2.14q-5.49-.74-11-1.62c-1.82-.29-3.65-.6-5.47-.91l-2.74-.49-1.37-.25-.68-.13-.35-.06-.38-.08c-1.82-.39-3.66-.78-5.48-1.19s-3.62-.83-5.42-1.28q-5.42-1.32-10.79-2.83t-10.7-3.19c-1.78-.56-3.55-1.14-5.33-1.73l-2.66-.91-1.33-.46-1.37-.49,6.2-4.37v6.79l-6.22-2.34A178.33,178.33,0,0,1,201.43,372a150.17,150.17,0,0,1-15.79-9.1c-.64-.43-1.27-.84-1.91-1.28l-1.9-1.33L180,358.86c-.6-.47-1.21-.92-1.81-1.4q-3.6-2.81-7-5.84c-2.28-2-4.5-4.13-6.66-6.3-.54-.54-1.07-1.09-1.6-1.64s-1.05-1.11-1.57-1.67-1-1.13-1.55-1.7l-.76-.86-.38-.43-.19-.22-.1-.11,0-.05s-.43-.56-.37-.48,0,0,.11.15a4.46,4.46,0,0,0,1.42,1.27l-1.2-1c-2-2.28-3.88-4.63-5.7-7.07l.21.27a3.82,3.82,0,0,0,.54.53l.13.11-.15-.13a3.89,3.89,0,0,1-.56-.54l7.2-6.16,5.57,6.88-7.42,5.93c-1.14-1.51-2.28-3-3.44-4.39s-2.34-2.75-3.55-4a24.78,24.78,0,0,0-3.67-3.12,10,10,0,0,0-1.71-.95,4.16,4.16,0,0,0-1.3-.34H144l-.2,0-1.6.14c-1.07.08-2.16.12-3.27.1a28.12,28.12,0,0,1-3.39-.23,21,21,0,0,1-3.57-.74,15.12,15.12,0,0,1-3.82-1.71,11.57,11.57,0,0,1-1.92-1.54,10.15,10.15,0,0,1-1.68-2.2,10.77,10.77,0,0,1-1.3-5.12,16.81,16.81,0,0,1,.5-4.06,31.48,31.48,0,0,1,1-3.3c.37-1,.75-2,1.14-2.93.79-1.88,1.6-3.67,2.36-5.4s1.42-3.38,2-5.06c.3-.84.58-1.68.83-2.51.12-.41.23-.81.33-1.21l.08-.29,0-.14,0-.07a1.43,1.43,0,0,0,0,.24c0,.11,0,.22-.05.34a4.4,4.4,0,0,0,4.28,4.81,4.27,4.27,0,0,0,2.07-.45l-.15.08-.35.17-.69.33c-.45.22-.91.44-1.38.65-.92.42-1.85.82-2.79,1.21a61.38,61.38,0,0,1-5.86,2.11,32,32,0,0,1-6.6,1.35,16.1,16.1,0,0,1-4.1-.15,10.71,10.71,0,0,1-2.48-.76,8.81,8.81,0,0,1-2.61-1.77,8.62,8.62,0,0,1-1.87-2.74,9.81,9.81,0,0,1-.73-2.78,11.68,11.68,0,0,1,0-2.6c.09-.71.2-1.33.33-1.92.25-1.16.55-2.2.86-3.21s.63-2,1-2.91c1.3-3.77,2.64-7.34,3.85-10.92s2.3-7.13,3.15-10.69c.21-.89.41-1.77.59-2.66.08-.44.17-.88.25-1.33l.26-1.42,1-5.72q2.07-11.44,4.24-22.88,1.08-5.72,2.23-11.44.57-2.86,1.18-5.73l.62-2.89.33-1.46.17-.74.2-.82-.08.36.07-.35,0-.13,0-.24.12-.47.23-.9.46-1.8,1-3.58c.66-2.38,1.33-4.75,2-7.11q2.1-7.08,4.47-14.09t5.11-13.93q1.38-3.47,2.88-6.88c1-2.29,2.06-4.56,3.17-6.81l-.21,4.06c-1-2.65-1.8-5.28-2.54-7.91s-1.38-5.26-2-7.89c-1.19-5.26-2.17-10.53-3-15.81-1.68-10.56-2.85-21.15-3.58-31.79A317.1,317.1,0,0,1,136,55.37c.19-5.37.54-10.75,1.17-16.15a112.75,112.75,0,0,1,3-16.26A59.42,59.42,0,0,1,143,14.8a32,32,0,0,1,4.84-8c.28-.32.56-.63.86-.94l.45-.46.53-.49a16.4,16.4,0,0,1,2.25-1.7,19.77,19.77,0,0,1,4.83-2.15,29.7,29.7,0,0,1,9.32-1,52.34,52.34,0,0,1,8.54,1,80.31,80.31,0,0,1,8,2,131.44,131.44,0,0,1,15.18,5.74c4.9,2.18,9.68,4.58,14.36,7.15s9.26,5.31,13.74,8.22,8.86,6,13.12,9.28a122.56,122.56,0,0,1,12.31,10.78l-5.66-1.14c3.76-1.58,7.55-3,11.37-4.17,1-.3,1.91-.62,2.87-.89l2.87-.85c1.93-.52,3.85-1,5.78-1.52,7.71-1.94,15.47-3.43,23.25-4.67s15.59-2.18,23.41-2.9q5.86-.54,11.75-.91c2-.13,3.93-.23,5.91-.31,1-.05,2-.08,3-.11s2-.06,3.06-.06,2.06,0,3.06.06l3,.11q3,.14,5.9.31c3.93.25,7.84.55,11.76.92Q374.35,29.22,386,31c7.79,1.25,15.55,2.74,23.26,4.67,1.93.48,3.85,1,5.77,1.53l2.87.84c1,.28,1.92.6,2.87.9,3.82,1.22,7.61,2.59,11.36,4.17l-5.62,1.14a120.39,120.39,0,0,1,12.31-10.78q6.39-4.93,13.12-9.27T465.7,16c4.67-2.56,9.45-5,14.36-7.15a133.81,133.81,0,0,1,15.17-5.73c2.62-.79,5.29-1.49,8-2a53.6,53.6,0,0,1,8.54-1,29.55,29.55,0,0,1,9.3,1,19.5,19.5,0,0,1,4.82,2.14,17.17,17.17,0,0,1,2.25,1.69l.52.49.45.46c.3.31.58.63.86,1a32,32,0,0,1,4.83,8A57.92,57.92,0,0,1,537.66,23a112.62,112.62,0,0,1,3,16.25c.63,5.4,1,10.78,1.17,16.15a314,314,0,0,1-.67,32.05c-.74,10.64-1.9,21.24-3.59,31.79-.85,5.28-1.83,10.54-3,15.8-.6,2.63-1.25,5.26-2,7.88s-1.55,5.26-2.53,7.9l-.21-4c1.11,2.25,2.16,4.52,3.17,6.8s2,4.58,2.87,6.88c1.84,4.61,3.53,9.26,5.11,13.93s3.07,9.37,4.46,14.09c.7,2.36,1.37,4.73,2,7.11l1,3.57.46,1.8.23.91.11.46.06.24,0,.14.08.34-.08-.35.2.82.17.74.33,1.46.62,2.88q.6,2.87,1.17,5.73,1.15,5.73,2.23,11.44,2.18,11.44,4.23,22.88l1,5.72.26,1.43c.08.44.16.88.25,1.33.18.88.38,1.77.59,2.66.85,3.56,1.94,7.12,3.15,10.7s2.55,7.16,3.85,10.92c.32.95.64,1.91,1,2.91s.6,2,.85,3.2a17.63,17.63,0,0,1,.32,1.91,10.78,10.78,0,0,1,0,2.57,10,10,0,0,1-.72,2.74,8.51,8.51,0,0,1-1.85,2.7,8.88,8.88,0,0,1-2.56,1.74,10.53,10.53,0,0,1-2.45.74,15.91,15.91,0,0,1-4.07.16,32.57,32.57,0,0,1-6.58-1.35,62,62,0,0,1-5.84-2.1c-.94-.39-1.87-.79-2.79-1.21l-1.38-.65-.69-.33-.34-.17-.16-.08a4.3,4.3,0,0,0,2,.44,4.22,4.22,0,0,0,2-.58,4.13,4.13,0,0,0,1.33-1.21,4.23,4.23,0,0,0,.78-2.87c0-.12,0-.23,0-.34a1.16,1.16,0,0,0-.05-.23l0,.08,0,.14.08.29c.1.39.21.8.34,1.21.24.83.52,1.67.83,2.51.6,1.69,1.29,3.39,2,5.08s1.57,3.52,2.35,5.39c.39.94.78,1.91,1.14,2.93a31.08,31.08,0,0,1,1,3.28,16.58,16.58,0,0,1,.49,4,10.45,10.45,0,0,1-1.28,5.05,9.85,9.85,0,0,1-1.65,2.17,11.38,11.38,0,0,1-1.9,1.53,15,15,0,0,1-3.78,1.69,21.94,21.94,0,0,1-3.56.74,27.93,27.93,0,0,1-3.37.23c-1.11,0-2.19,0-3.27-.1l-1.59-.15-.2,0h-.4a4,4,0,0,0-1.34.35,9.92,9.92,0,0,0-1.74,1,24.93,24.93,0,0,0-3.68,3.13c-1.22,1.23-2.41,2.57-3.57,4s-2.3,2.88-3.44,4.4l-7.21-5.76,5.57-6.89,7,6a4.61,4.61,0,0,1-.54.53l-.15.12.13-.1a5.15,5.15,0,0,0,.52-.51l.21-.27c-1.82,2.44-3.73,4.79-5.7,7.06l-1.17,1a4.77,4.77,0,0,0,.93-.71,4.55,4.55,0,0,0,.45-.53c.09-.12.13-.19.1-.15a4.59,4.59,0,0,1-.35.47l0,.06-.1.1-.19.22-.37.43-.77.86c-.51.57-1,1.14-1.54,1.7s-1,1.12-1.58,1.66-1.06,1.11-1.6,1.65q-3.22,3.25-6.65,6.29c-2.28,2-4.63,4-7,5.84l-1.81,1.39L496,360.14l-1.9,1.32c-.63.44-1.27.85-1.9,1.28a153.68,153.68,0,0,1-15.77,9.09,180.49,180.49,0,0,1-16.61,7.23l-6,2.27v-6.6l6,4.24-1.36.49-1.34.47-2.65.91c-1.78.59-3.55,1.16-5.33,1.72q-5.32,1.68-10.7,3.18c-3.59,1-7.18,1.94-10.79,2.81-1.8.44-3.62.86-5.43,1.27s-3.65.8-5.47,1.2l-.37.07-.35.07-.69.13-1.37.25-2.73.49c-1.82.32-3.65.62-5.47.92s-3.66.58-5.49.86-3.65.54-5.49.78c-7.33,1-14.69,1.83-22.1,2.27a2.26,2.26,0,0,1-.58-4.47Z"/><ellipse class="cls-8" cx="223.11" cy="302.84" rx="21" ry="10.2"/><ellipse class="cls-8" cx="454.74" cy="302.84" rx="21" ry="10.2"/><path class="cls-1" d="M370.41,287S364.9,301.62,352,298.24c-14.69-3.85-12.92-21.58-12.92-21.58"/><path class="cls-1" d="M307.18,287s5.51,14.64,18.42,11.26c14.69-3.85,12.92-21.58,12.92-21.58"/><path class="cls-3" d="M372.5,287.79l-.14.48-.14.44-.3.84c-.22.56-.45,1.1-.7,1.64a23.44,23.44,0,0,1-1.77,3.11,19.32,19.32,0,0,1-5.26,5.29,15.5,15.5,0,0,1-7.47,2.56,17.11,17.11,0,0,1-3.93-.21c-.33,0-.63-.12-1-.19s-.63-.13-.92-.23l-.9-.27-.45-.14-.44-.17-.89-.34c-.29-.12-.58-.28-.86-.41s-.58-.27-.86-.44l-.83-.49a18.23,18.23,0,0,1-4.38-3.83c-.39-.51-.8-1-1.14-1.55a18,18,0,0,1-1-1.63c-.28-.56-.57-1.12-.8-1.7a23.94,23.94,0,0,1-1.75-7,27.53,27.53,0,0,1-.13-3.51c0-.59.05-1.17.1-1.76,0-.29.06-.58.1-.88l.06-.44.08-.49a2.21,2.21,0,0,1,4.37,0l.06.42c0,.06,0,.2,0,.31l0,.36.06.72c.06.49.1,1,.18,1.47.15,1,.31,1.93.54,2.87a22.16,22.16,0,0,0,1.92,5.25c.2.4.43.77.66,1.15a11.25,11.25,0,0,0,.75,1.06c.24.36.54.66.81,1s.58.6.9.87a13,13,0,0,0,4.31,2.51l.3.12.31.09.63.19c.21.07.41.09.62.14s.41.11.61.13l.61.09c.2,0,.4,0,.6.06.4,0,.79,0,1.19,0a10.35,10.35,0,0,0,4.53-1.28,16.44,16.44,0,0,0,4.1-3.3,24.56,24.56,0,0,0,1.8-2.2c.29-.38.57-.78.83-1.18.13-.2.27-.4.39-.61l.19-.29.16-.26.35-.43a2.19,2.19,0,0,1,3.09-.32A2.26,2.26,0,0,1,372.5,287.79Z"/><path class="cls-3" d="M309.26,286.18a2.47,2.47,0,0,1,.16.26l.19.29c.12.21.26.41.39.61.26.4.54.8.83,1.18a24.64,24.64,0,0,0,1.81,2.2,16.26,16.26,0,0,0,4.1,3.3,10.31,10.31,0,0,0,4.52,1.28c.4,0,.79,0,1.19,0,.2,0,.4,0,.61-.06l.6-.09c.21,0,.41-.09.62-.13s.41-.07.62-.14l.62-.19.31-.09.3-.12a12.89,12.89,0,0,0,4.31-2.51c.32-.27.6-.58.9-.87s.57-.63.81-1,.51-.7.76-1.06.45-.75.66-1.15a22.59,22.59,0,0,0,1.91-5.25,27.4,27.4,0,0,0,.54-2.87c.08-.49.13-1,.18-1.47l.06-.72,0-.36c0-.11,0-.25,0-.31l.06-.41a2.21,2.21,0,0,1,4.37,0l.08.49.06.44c0,.3.07.59.1.88,0,.59.09,1.17.1,1.76a27.53,27.53,0,0,1-.13,3.51,23.94,23.94,0,0,1-1.75,7c-.23.58-.52,1.14-.8,1.7a18,18,0,0,1-1,1.63c-.34.54-.75,1-1.14,1.55a17.88,17.88,0,0,1-1.32,1.43,18.11,18.11,0,0,1-3,2.4l-.84.49c-.27.17-.57.29-.85.44s-.58.29-.87.41l-.89.34-.44.17-.45.14-.9.27a8.83,8.83,0,0,1-.92.23c-.32.07-.62.15-.95.19a17,17,0,0,1-3.92.21,15.5,15.5,0,0,1-7.48-2.56,19.32,19.32,0,0,1-5.26-5.29,24.61,24.61,0,0,1-1.77-3.11c-.25-.54-.48-1.08-.7-1.64-.1-.28-.2-.56-.29-.84l-.14-.44-.14-.48a2.22,2.22,0,0,1,1.49-2.77,2.18,2.18,0,0,1,2.32.73Z"/><path class="cls-3" d="M321.1,267.37c0,4.19,5.4,7.9,10.37,10.42a17.62,17.62,0,0,0,16.2,0c5-2.52,10.36-6.23,10.36-10.42C358,254.72,321.1,254.72,321.1,267.37Z"/><g class="cls-6"><path class="cls-1" d="M332.24,264.89c0,1.21,2.15,2.27,4.12,3a9.32,9.32,0,0,0,6.42,0c2-.73,4.11-1.79,4.11-3C346.89,261.24,332.24,261.24,332.24,264.89Z"/></g><path class="cls-1" d="M498.75,495.44c10.76.7,34.9-.72,47.47-27.44s-5.72-79-29.67-85.56c-3.47-.95-9.92.61-11.86,6.05-3.82,10.72,6.32,28,6.32,28s-37.1,10.74-37,35.32C474.05,468.12,476.82,494,498.75,495.44Z"/><g class="cls-2"><path class="cls-3" d="M546.23,468c-12.58,26.73-36.72,28.16-47.48,27.45-21.93-1.44-24.7-27.32-24.76-43.67a23.06,23.06,0,0,1,.64-5.52C476.25,461,484,468.94,501,470.93c13.56,1.59,37.35-1.59,45.27-20.45a49.5,49.5,0,0,0,3.54-12.59C551.05,449,550.13,459.7,546.23,468Z"/></g><path class="cls-3" d="M502.53,500.07c-1.47,0-2.83-.05-4.07-.13h0c-11.34-.74-19.78-7.33-24.43-19.06-3-7.55-4.45-17.06-4.49-29.1-.08-21.94,24.23-33.72,35.13-37.9-.78-1.66-1.64-3.65-2.43-5.83-3.1-8.52-3.69-15.62-1.74-21.09a13.66,13.66,0,0,1,7.86-8.06,14.93,14.93,0,0,1,9.36-.81c10.69,2.93,21,13.77,28.23,29.73a100.7,100.7,0,0,1,8.48,31.86c1.05,11.73-.39,22.2-4.18,30.26-6,12.66-15,21.49-26.8,26.25A56.25,56.25,0,0,1,502.53,500.07ZM499,490.94c11.39.74,32.16-1.5,43.16-24.88,6.11-13,4.33-35.39-4.34-54.47-6.06-13.33-14.46-22.6-22.47-24.79-1.42-.39-5.45.26-6.51,3.22-2.52,7.08,3.62,20.12,6,24.13l2.95,5-5.55,1.61c-.34.09-33.86,10.1-33.79,31,0,10.73,1.33,19.4,3.86,25.77,3.37,8.52,8.84,12.9,16.73,13.42Z"/><path class="cls-1" d="M243.07,505.12s40.34,16.17,44.64,56.14c6,55.71-40.18,87.15-40.18,87.15"/><path class="cls-3" d="M243.89,503l.72.24c.23.07.45.16.67.24l1.34.5c.88.33,1.74.71,2.6,1.09,1.73.75,3.41,1.59,5.07,2.47a81.18,81.18,0,0,1,9.6,6,73.77,73.77,0,0,1,16.32,16.16c.6.76,1.13,1.58,1.68,2.39l.81,1.22.75,1.26.76,1.26.19.31.17.33.35.65.68,1.3c.23.43.47.87.66,1.32l1.24,2.68,1.09,2.75c.09.23.19.45.27.68l.24.71.47,1.4c.15.47.31.94.46,1.41l.39,1.43.39,1.43.19.72.15.72.61,2.9c.16,1,.29,2,.44,2.93.07.49.15,1,.2,1.46l.15,1.44A91.3,91.3,0,0,1,293,574a93.78,93.78,0,0,1-1,11.58c-.12,1-.31,1.91-.47,2.86s-.37,1.91-.57,2.86-.42,1.89-.67,2.82l-.36,1.41-.39,1.4a96.65,96.65,0,0,1-9,21.28c-.95,1.67-1.95,3.3-3,4.92s-2.12,3.19-3.24,4.74a109.94,109.94,0,0,1-7.18,8.9,107.67,107.67,0,0,1-8,8.1c-.71.65-1.42,1.27-2.14,1.9s-1.46,1.23-2.2,1.83-1.5,1.19-2.28,1.77l-1.17.87-.61.43-.67.46a4.42,4.42,0,0,1-6.19-1.2,4.55,4.55,0,0,1,1-6.15l.17-.13.44-.33.5-.38,1-.79c.67-.54,1.33-1.1,2-1.66,1.3-1.14,2.59-2.32,3.85-3.52,2.52-2.41,4.92-5,7.21-7.6s4.44-5.4,6.45-8.25q1.52-2.13,2.91-4.34c.93-1.47,1.83-3,2.67-4.49.44-.75.84-1.52,1.25-2.29s.8-1.54,1.17-2.32c.78-1.55,1.49-3.14,2.18-4.73a85.72,85.72,0,0,0,6.78-30.24,93,93,0,0,0-.25-10.42l-.11-1.3c0-.44-.1-.85-.15-1.27-.11-.84-.2-1.68-.33-2.52l-.47-2.49-.11-.63-.15-.61-.31-1.23-.31-1.23c-.11-.41-.25-.81-.37-1.22l-.38-1.21-.18-.6-.22-.6-.89-2.38-1-2.33c-.16-.39-.35-.77-.55-1.15l-.57-1.14-.28-.57-.14-.28-.16-.28-.62-1.11-.62-1.12-.68-1.09c-.45-.72-.88-1.46-1.38-2.15a78.67,78.67,0,0,0-13.75-15.47c-2.63-2.31-5.41-4.46-8.28-6.52-1.44-1-2.91-2-4.39-2.94l-1.13-.7-1.13-.68-1.13-.66-1.11-.61-.13-.08a2.26,2.26,0,0,1-.87-3.06A2.22,2.22,0,0,1,243.89,503Z"/><path class="cls-1" d="M201.8,634.79c27-3,58.17,2.15,62.2,15.9,3.87,13.18,12.29,39.68-51.74,30.44"/><path class="cls-3" d="M201.8,646.06a33.3,33.3,0,0,1,7.93-4.54,58.32,58.32,0,0,1,8.75-2.82,79.85,79.85,0,0,1,18.32-2.13,71.43,71.43,0,0,1,9.32.58,48.67,48.67,0,0,1,9.37,2.13,30.44,30.44,0,0,1,4.65,2,18.9,18.9,0,0,1,4.43,3.34,13.54,13.54,0,0,1,1.89,2.47,12.61,12.61,0,0,1,.74,1.47c.1.26.2.52.29.79l.21.62c.48,1.5.93,3,1.32,4.63a42.73,42.73,0,0,1,.92,4.94c.1.85.17,1.72.21,2.6s0,1.77,0,2.68a24,24,0,0,1-.33,2.75,23.19,23.19,0,0,1-.69,2.76,18.7,18.7,0,0,1-2.62,5.2,20,20,0,0,1-4,4.14,24.8,24.8,0,0,1-4.63,2.87,34,34,0,0,1-4.82,1.88,45.43,45.43,0,0,1-4.84,1.18,64.51,64.51,0,0,1-9.58,1.05c-3.16.14-6.29.11-9.39-.06s-6.18-.42-9.23-.79-6.09-.81-9.1-1.33a4.51,4.51,0,0,1,1.3-8.93h0c2.92.37,5.84.72,8.75,1s5.81.52,8.7.66l2.16.08,2.16,0c1.43,0,2.86,0,4.28,0l1.06,0,1.06-.06c.7,0,1.39-.1,2.09-.15l1-.11,1-.13,1-.13,1-.16a31.37,31.37,0,0,0,7.53-2.15,14,14,0,0,0,5.46-4,10.79,10.79,0,0,0,1.58-2.82,16.07,16.07,0,0,0,.49-1.62c.12-.57.22-1.16.29-1.77a27.32,27.32,0,0,0-.48-7.86c-.26-1.37-.59-2.76-1-4.18l-.12-.46a1.61,1.61,0,0,0-.09-.29,3.46,3.46,0,0,0-.24-.57,5.79,5.79,0,0,0-.79-1.18,11.74,11.74,0,0,0-2.66-2.22,23.38,23.38,0,0,0-3.49-1.81,46.84,46.84,0,0,0-8-2.45,75.5,75.5,0,0,0-8.56-1.33,92.79,92.79,0,0,0-17.56-.05,64.85,64.85,0,0,0-8.74,1.38,42.64,42.64,0,0,0-4.29,1.2A33,33,0,0,0,201.8,646.06Z"/><g class="cls-2"><path class="cls-3" d="M173.15,654.44c5.16,5.81,7.2,14,12.92,19s35.14,10,52.19,10h21l2.4-25s-38.42,15.17-61.34,0c-16.14-10.68-6.52-21.27-10-28.34-4.44-9.06-30.35.49-40.82-44.71C147.4,609.14,153.29,632.13,173.15,654.44Z"/></g><ellipse class="cls-3" cx="265.54" cy="232.16" rx="43.98" ry="31.38" transform="translate(2.39 467.02) rotate(-82.91)"/><ellipse class="cls-1" cx="277.44" cy="224.7" rx="15.17" ry="8.41" transform="translate(24.41 476.56) rotate(-83.87)"/><ellipse class="cls-1" cx="249.2" cy="242.03" rx="7.59" ry="4.2" transform="translate(-29.43 449.51) rotate(-80.84)"/><ellipse class="cls-3" cx="417.24" cy="232.16" rx="31.38" ry="43.98" transform="translate(-25.46 53.26) rotate(-7.09)"/><ellipse class="cls-1" cx="405.33" cy="224.7" rx="8.41" ry="15.17" transform="translate(-21.68 44.57) rotate(-6.13)"/><ellipse class="cls-1" cx="433.58" cy="242.03" rx="4.2" ry="7.59" transform="matrix(0.99, -0.16, 0.16, 0.99, -33.01, 72.12)"/></g></g></svg>